<?xml version="1.0" encoding="UTF-8" standalone="no"?>
<svg
   xmlns:dc="http://purl.org/dc/elements/1.1/"
   xmlns:cc="http://creativecommons.org/ns#"
   xmlns:rdf="http://www.w3.org/1999/02/22-rdf-syntax-ns#"
   xmlns:svg="http://www.w3.org/2000/svg"
   xmlns="http://www.w3.org/2000/svg"
   xmlns:sodipodi="http://sodipodi.sourceforge.net/DTD/sodipodi-0.dtd"
   xmlns:inkscape="http://www.inkscape.org/namespaces/inkscape"
   version="1.1"
   id="svg2"
   width="321.85269"
   height="687.36328"
   viewBox="0 0 321.85269 687.36328"
   sodipodi:docname="lama1.svg"
   inkscape:version="1.0.2 (e86c870879, 2021-01-15)">
  <sodipodi:namedview
     pagecolor="#ffffff"
     bordercolor="#666666"
     borderopacity="1"
     objecttolerance="10"
     gridtolerance="10"
     guidetolerance="10"
     inkscape:pageopacity="0"
     inkscape:pageshadow="2"
     inkscape:window-width="1366"
     inkscape:window-height="700"
     id="namedview7"
     showgrid="false"
     inkscape:zoom="0.66049498"
     inkscape:cx="174.55249"
     inkscape:cy="357.30778"
     inkscape:window-x="0"
     inkscape:window-y="0"
     inkscape:window-maximized="1"
     inkscape:current-layer="svg2" />
  <metadata
     id="metadata8">
    <rdf:RDF>
      <cc:Work
         rdf:about="">
        <dc:format>image/svg+xml</dc:format>
        <dc:type
           rdf:resource="http://purl.org/dc/dcmitype/StillImage" />
        <dc:title />
      </cc:Work>
    </rdf:RDF>
  </metadata>
  <defs
     id="defs6" />
  <g
     id="g10"
     transform="translate(0.310186,-13.013556)"
     style="fill:#374054;fill-opacity:1">
    <path
       style="fill:#374054;stroke:none;fill-opacity:1"
       d="m 43.666056,254.91426 c -4.2036,6.397 -8.1666,13.03 -6.8196,21 1.0577,6.257 4.8822,11.645 5.5794,18 1.2915,11.772 -1.3209,24.07 -0.4489,36 0.7451,10.194 4.7637,19.59 5.8602,29.602 1.1004,10.048 -2.2331,21.268 -2.8252,31.398 -0.7745,13.251 0.966,26.952 3.1911,40 2.5446,14.922 6.4084,29.673 11.2846,44 3.1973,9.394 8.4095,19.005 9.2197,29 1.1202,13.819 -0.1631,28.123 -0.0184,42 0.2933,28.148 2.8028,60.407 12.4382,87 9.3455,25.793 29.575904,45.826 53.538904,58.489 8.449,4.465 19.14599,10.101 28.99999,8.777 10.509,-1.413 21.106,-7.42 30,-12.881 8.937,-5.487 17.391,-11.952 24.658,-19.533 26.047,-27.166 30.18,-64.995 33.017,-100.852 1.136,-14.355 1.336,-28.607 1.324,-43 -0.006,-7.839 -1.176,-16.279 0.387,-24 2.134,-10.551 7.358,-20.748 10.659,-31 5.911,-18.357 10.358,-37.736 11.755,-57 0.782,-10.782 1.013,-21.222 0.011,-32 -0.583,-6.269 -2.565,-12.689 -2.152,-19 0.64,-9.786 5.13,-19.084 5.93,-29 1.015,-12.591 -1.869,-25.6 -0.433,-38 0.81,-6.994 5.311,-12.924 5.793,-20 0.432,-6.35 -3.297,-11.792 -3.314,-18 -0.018,-6.769 4.125,-13.28 5.105,-20 1.157,-7.935 -1.076,-16.212 0.697,-24 1.627,-7.145 6.446,-13.643 9.914,-20 5.286,-9.691 9.866,-19.665 13.752,-30 11.851,-31.519 14.614,-66.577203 4.819,-99.000003 -4.558,-15.0894 -12.338,-30.7419 -24.139,-41.45764 -8.826,-8.013864 -29.102,-14.259034 -31.358,3.51234 -1.323,10.4283 4.123,21.1297 3.203,31.9453 -0.906,10.658 -5.188,20.5653 -7.204,31 -2.417,12.503603 -2.448,25.318003 -2.421,38.000003 0.027,12.705 4.578,32.653 -8.298,40.749 -9.512,5.98 -19.286,0.891 -28.705,-2.347 -6.189,-2.128 -12.581,-3.602 -19,-4.843 -13.642,-2.638 -27.167,-2.559 -41,-2.559 -10.33999,0 -20.79899,-0.329 -30.99999,1.658 -8.459,1.647 -16.805,4.537 -25,7.173 -5.465304,1.758 -11.132804,4.116 -16.991304,3.543 -9.4571,-0.925 -15.0358,-8.494 -16.3326,-17.379 -1.1164,-7.648 -0.007,-15.33 0.2266,-22.995 0.3255,-10.69 -0.0589,-21.3625 -1.1613,-32.000003 -1.5851,-15.2939 -8.5467,-29.5366 -8.6037,-45 -0.0429,-11.6273 10.3912,-32.31537 -5.3695,-38.04346 -8.5508,-3.107724 -17.5745,2.81586 -23.5277,8.45256 -13.2869,12.5806 -21.1140803,31.0908 -25.3834403,48.5909 -8.1625,33.457903 -2.66153997,68.607003 10.5619403,100.000003 5.473,12.993 14.41,24.877 19.1982,38 2.3798,6.522 0.8011,13.264 0.9129,20 0.1617,9.738 2.8767,18.739 9.4699,26 m 8,-101 h -1 c -6.1753,-9.53 -12.5774,-19.551 -14.3027,-31 -1.2547,-8.326 0.7619,-16.6705 -0.2021,-25.000003 -0.6719,-5.8051 -2.9665,-11.2382 -3.8467,-16.9998 -1.014,-6.6372 -0.3148,-13.367 0.3515,-20.0002 -23.5454703,32.9127 -11.0255,73.863003 -4,110.000003 -20.3973203,-32.433 -26.1555103,-73.190503 -11.9366,-109.000003 4.2026,-10.584 9.6456,-21.6955 18.2093,-29.458 3.0005,-2.7198 8.2164,-6.7177 12.4256,-4.1236 3.1396,1.9349 3.4349,6.3203 3.3512,9.6121 -0.2236,8.7872 -3.611,17.1673 -3.6931,25.9695 -0.1202,12.8851 7.8063,24.1233 8.451,37.000003 0.5333,10.6531 -2.5976,20.561 -3.9727,31 -0.9718,7.378 -0.4654,14.622 0.1653,22 m 241.999994,17 h -1 c 6.559,-36.367 19.726,-76.834403 -4,-110.000003 0.54,6.3124 1.261,12.6834 0.387,19.0004 -0.843,6.1009 -3.199,11.8702 -3.901,17.9996 -0.954,8.333303 1.026,16.686003 -0.313,25.000003 -1.825,11.332 -8.265,21.396 -14.173,31 -0.644,-7.341 0.053,-14.665 -0.953,-22 -1.522,-11.107 -4.7,-21.6537 -3.722,-33.000003 1.07,-12.4156 8.702,-23.4041 8.193,-36 -0.341,-8.4336 -3.39,-16.5297 -3.67,-24.968 -0.117,-3.5206 0.313,-8.3571 4.1,-9.9155 4.192,-1.725 8.815,1.7923 11.719,4.4411 7.699,7.025 12.839,16.9776 16.884,26.4424 10.61,24.826 12.005,51.067103 4.579,77.000003 -3.484,12.169 -8.859,23.538 -14.13,35 m -53,27 c -4.975,-1.052 -9.903,-1.947 -15.005,-1.323 -12.643,1.545 -22.707,9.919 -33.995,14.983 -9.364,4.202 -19.768,6.11 -30,6.231 -10.127,0.118 -20.60499,-1.391 -29.99999,-5.278 -11.843,-4.899 -22.009,-13.801 -34.998404,-15.798 -5.7438,-0.883 -11.3587,0.142 -17.0016,1.185 15.2092,-14.47 35.084004,-22.192 56.000004,-17.153 8.185,1.972 16.55699,8.652 24.99999,8.561 8.372,-0.09 16.757,-6.624 24.903,-8.641 19.856,-4.915 41.592,1.925 55.097,17.233 m -126.99999,50 -3,-24 c 23.202,14.839 48.96599,22.239 75.99999,12.809 8.651,-3.017 16.327,-7.902 24,-12.809 l -3,24 c 11.147,-11.448 23.219,-24.246 40,-26.249 10.32,-1.231 24.448,5.784 19.235,18.123 -7.492,17.737 -31.865,14.386 -41.197,29.351 -2.256,3.616 -2.72,7.625 -3.038,11.775 12.256,0.637 24.453,3.212 33.234,12.501 7.787,8.237 10.384,19.472 10.679,30.499 0.569,21.239 -5.655,45.325 -22.913,59 -3.481,-8.76 -8.7,-14.536 -17,-19 3.605,12.579 6.76,27.866 -0.544,39.789 -10.821,17.663 -37.893,14.769 -52.323,3.783 -5.209,-3.966 -8.9,-8.953 -12.133,-14.572 h -2 c -3.766,6.182 -8.117,11.669 -14.11199,15.853 -14.304,9.982 -40.107,11.799 -50.344304,-5.031 -7.252,-11.922 -4.2751,-27.269 -0.5437,-39.822 -8.2965,4.448 -13.6904,10.145 -17,19 -17.2314,-13.547 -23.2234,-36.914 -22.95,-58 0.1534,-11.835 2.9173,-23.768 11.5496,-32.4 8.7823,-8.782 20.5122,-10.837 32.4004,-11.6 -0.3167,-4.137 -0.7722,-8.148 -3.0377,-11.747 -9.3786,-14.897 -33.853,-11.7 -41.333,-29.377 -5.3685,-12.687 8.8111,-19.415 19.371,-18.127 16.9035,2.061 28.537704,15.022 39.999704,26.251 m -15.000004,66 h 1 c 4.568004,-11.346 10.298004,-22.087 19.184004,-30.674 21.122,-20.41 54.24699,-23.143 77.78899,-5.031 11.907,9.16 19.498,21.976 25.027,35.705 0.888,-7.246 -0.521,-14.137 -2.895,-21 -10.886,-31.463 -44.525,-47.127 -76.10499,-38.357 -27.288,7.577 -42.488,32.128 -44.000004,59.357 m -46.5255,-48.186 c 9.1555,-2.824 14.3478,10.622 4.4029,13.403 -8.7349,2.443 -13.1838,-10.694 -4.4029,-13.403 m 211.895494,0.01 c 8.875,-2.95 14.249,10.129 5.134,13.284 -9.031,3.126 -14.82,-10.064 -5.134,-13.284 m -169.369994,64.176 c 4.6096,6.073 10.059004,11.806 18.002004,12.927 6.324,0.894 12.638,-1.187 18.998,-0.191 6.92,1.083 13.02,4.842 18.99999,8.264 -0.698,-3.761 -1.46099,-7.47 -3.26799,-10.885 -11.537,-21.804 -34.731,-6.379 -52.732004,-10.115 m 75.999994,21 c 5.98,-3.422 12.08,-7.181 19,-8.264 6.355,-0.995 12.679,1.078 18.998,0.144 7.925,-1.172 13.335,-6.852 18.002,-12.88 -18.191,3.776 -42.449,-12.033 -53.353,11.022 -1.501,3.173 -2.102,6.543 -2.647,9.978 m -109.999994,38 c 2.4995,5.35 4.6596,10.885 7.6667,15.981 2.8525,4.834 6.6622,9.128 8.9362,14.292 5.7463,13.049 8.1373,24.893 18.6499,35.523 17.413204,17.609 41.939204,22.245 65.747194,22.196 21.341,-0.043 43.332,-4.357 59.937,-18.689 7.106,-6.134 12.913,-13.651 16.606,-22.303 2.329,-5.457 3.391,-11.376 5.808,-16.781 2.301,-5.146 6.117,-9.413 8.956,-14.249 3.088,-5.259 5.203,-10.942 8.693,-15.97 -0.551,14.706 -0.513,29.417 -2.831,44 -5.022,31.595 -18.914,61.581 -42.194,83.828 -9.014,8.614 -19.224,14.993 -29.975,21.172 6.819,0.873 13.302,0.69 20,-0.994 6.413,-1.613 13.995,-5.232 19.616,0.196 3.674,3.547 4.959,8.974 5.932,13.8 2.073,10.283 2.653,20.548 1.908,30.998 -0.907,12.706 -1.734,25.811 -5.727,38 -6.685,20.408 -21.729,37.338 -38.732,49.965 -7.732,5.741 -18.852,14.975 -28.997,14.975 -10.148,0 -21.26099,-9.236 -28.99799,-14.974 -17.11,-12.691 -32.104404,-29.437 -38.832604,-49.966 -4.0771,-12.44 -5.0281,-26.005 -5.8225,-39 -0.7618,-12.464 -1.8308,-34.301 7.9996,-43.798 5.652504,-5.46 13.213504,-1.736 19.653504,-0.161 6.663,1.629 13.222,1.734 20,0.959 v -1 c -44.236904,-18.611 -68.530104,-67.422 -73.364204,-113 -1.2159,-11.465 -2.5857,-23.568 -0.6358,-35 m 167.999994,29 c -1.304,4.554 -2.888,8.834 -5.464,12.845 -14.346,22.338 -39.338,20.993 -62.536,20.996 -23.23099,0.003 -48.00699,1.455 -62.465694,-20.885 -2.6147,-4.04 -4.2181,-8.36 -5.5343,-12.956 l 30.000004,8.879 38.99999,1.389 40,-1.921 z"
       id="path841" />
  </g>
</svg>
